<svg xmlns="http://www.w3.org/2000/svg" viewBox="0 0 48 48"><g fill="none" fill-rule="evenodd"><path d="M0 0h48v48H0z"/><path d="M11 37h8v6h-9c-2.762 0-5-2.238-5-5v-9h6v8zm0-26v8H5v-9c0-2.762 2.238-5 5-5h9v6h-8zm26 0h-8V5h9c2.762 0 5 2.238 5 5v9h-6v-8zm0 26v-8h6v9c0 2.762-2.238 5-5 5h-9v-6h8zM24 15c4.972 0 9 4.028 9 9s-4.028 9-9 9-9-4.028-9-9 4.028-9 9-9zm0 12c1.658 0 3-1.342 3-3s-1.342-3-3-3-3 1.342-3 3 1.342 3 3 3z" stroke-opacity=".698" stroke="#000" stroke-width="2" fill="#FFF" fill-rule="nonzero"/></g></svg>